<svg width="458" height="381" viewBox="0 0 458 381" fill="none" xmlns="http://www.w3.org/2000/svg">
<path d="M381.025 359.753L380.233 370.319L364.109 365.036L370.716 357.112L381.025 359.753Z" fill="#FEB8B8"/>
<path d="M439.707 356.319L438.912 366.62L429.925 367.941L424.639 362.923L430.718 353.149L439.707 356.319Z" fill="#FEB8B8"/>
<path d="M446.315 224.776C446.315 224.776 453.452 233.228 444.464 246.171C435.477 259.115 424.64 271.794 424.64 271.794L404.549 309.83C404.549 309.83 394.24 347.075 391.861 348.131C389.482 349.187 388.16 344.961 389.482 349.451C390.803 353.941 390.01 353.678 388.953 353.943C387.896 354.208 384.988 353.679 386.045 355.528C387.103 357.377 387.896 357.377 385.781 357.377C383.666 357.377 382.874 356.057 382.874 357.905C382.874 359.754 381.023 363.981 381.023 363.981C381.023 363.981 368.071 360.283 367.542 358.698C367.014 357.113 370.979 356.32 370.186 354.736C369.393 353.151 369.129 353.151 369.129 350.774C369.129 348.397 370.715 347.868 370.715 347.868C370.715 347.868 372.036 347.34 371.508 346.283C370.979 345.226 368.864 345.755 371.508 344.434C374.151 343.113 384.989 302.699 384.989 302.699C384.989 302.699 384.989 282.621 388.426 276.019C391.862 269.417 389.218 222.398 397.415 221.87C405.612 221.342 446.315 224.776 446.315 224.776Z" fill="#2F2E41"/>
<path d="M443.671 239.832L442.085 280.774C442.085 280.774 450.015 320.395 447.372 332.546C444.729 344.696 446.579 343.112 444.993 345.225C443.407 347.338 442.085 346.281 443.407 348.13C444.728 349.979 445.519 350.508 443.407 352.622C441.295 354.736 440.235 359.754 440.235 359.754L426.754 358.434C426.754 358.434 430.19 352.358 428.866 351.037C427.542 349.716 424.108 351.83 426.754 348.927C429.4 346.024 430.984 347.342 429.397 346.021C427.811 344.701 425.433 345.229 427.547 343.116C429.661 341.003 432.042 341.005 429.926 340.21C427.81 339.415 425.431 340.21 426.49 338.625C427.549 337.04 428.869 335.192 428.869 335.192L425.697 311.154C425.697 311.154 421.997 303.23 423.054 299.796C424.111 296.363 418.559 268.099 418.559 268.099L443.671 239.832Z" fill="#2F2E41"/>
<path d="M437.858 361.602C437.858 361.602 440.501 358.96 441.294 360.545C442.086 362.13 447.901 376.394 444.465 377.45C441.03 378.507 436.007 379.561 433.364 378.771C430.72 377.981 425.17 374.279 418.562 374.279C411.954 374.279 406.403 371.374 406.403 370.317C406.403 369.261 405.346 362.921 410.367 362.921C415.389 362.921 424.641 357.11 424.641 357.11C424.641 357.11 426.753 352.884 427.813 353.148C428.873 353.413 428.077 361.865 428.077 361.865C428.077 361.865 434.155 367.677 437.858 361.602Z" fill="#2F2E41"/>
<path d="M379.175 365.035C379.175 365.035 381.554 359.224 383.933 360.544C386.312 361.863 384.726 378.24 384.726 378.24C384.726 378.24 382.614 381.673 376.532 380.881C370.45 380.089 354.329 378.24 350.628 379.032C346.927 379.824 336.883 375.334 339.526 369.259C339.526 369.259 340.847 365.825 347.192 366.089C353.536 366.353 365.166 358.693 365.166 358.693C365.166 358.693 367.017 353.41 367.545 353.938C368.074 354.466 368.602 363.712 368.602 363.712C368.602 363.712 375.475 368.205 379.175 365.035Z" fill="#2F2E41"/>
<path d="M413.803 121.496C422.27 121.496 429.134 114.637 429.134 106.175C429.134 97.714 422.27 90.8547 413.803 90.8547C405.335 90.8547 398.471 97.714 398.471 106.175C398.471 114.637 405.335 121.496 413.803 121.496Z" fill="#FEB8B8"/>
<path d="M425.697 107.232C425.697 107.232 433.891 123.608 436.799 125.194C439.706 126.779 416.974 136.552 416.974 136.552C416.974 136.552 413.274 120.439 408.78 117.006C404.286 113.572 425.697 107.232 425.697 107.232Z" fill="#FEB8B8"/>
<path d="M402.172 241.152L401.115 251.19C401.115 251.19 389.749 247.228 393.449 239.832L402.172 241.152Z" fill="#FEB8B8"/>
<path d="M397.68 226.096C405.61 234.547 447.636 227.414 447.636 227.414L447.11 221.34L452.396 215.797L450.811 189.909C450.811 189.909 455.566 177.759 456.358 159.269C456.406 158.133 456.338 156.994 456.154 155.872C453.429 139.308 426.439 128.64 425.698 128.891C425.324 129.014 421.352 131.083 417.206 133.259C412.446 135.758 407.461 138.4 407.461 138.4C401.116 140.781 402.174 178.819 400.058 182.252C397.942 185.685 400.058 197.567 400.058 197.567L397.681 208.924C397.681 208.924 389.748 217.646 397.68 226.096Z" fill="#F0F0F0"/>
<path opacity="0.1" d="M423.298 142.241C423.298 142.241 430.699 164.429 429.113 179.485C427.527 194.542 410.346 237.597 410.346 237.597L404.533 240.767V248.162L400.443 237.091L411.691 213.589C411.691 213.589 397.656 132.468 423.298 142.241Z" fill="black"/>
<path opacity="0.1" d="M416.356 135.583C424.025 131.358 435.657 142.456 447.815 154.339C452.181 158.605 454.707 158.176 456.155 155.871C453.43 139.308 426.44 128.64 425.699 128.89C425.326 129.013 421.353 131.082 417.207 133.259L416.356 135.583Z" fill="black"/>
<path d="M416.36 133.542L419.532 124.825C419.532 124.825 441.207 114.523 455.481 124.825L457.86 139.617C457.86 139.617 459.972 164.182 447.815 152.296C435.658 140.41 424.025 129.315 416.36 133.542Z" fill="#F0F0F0"/>
<path d="M422.526 138.665C422.526 138.665 429.927 160.853 428.341 175.909C426.755 190.966 409.574 234.021 409.574 234.021L403.758 237.193V244.589L391.6 241.155L394.243 232.439C394.243 232.439 390.013 227.156 392.922 225.571C395.83 223.986 395.301 215.269 395.301 215.269C395.301 215.269 396.886 128.891 422.526 138.665Z" fill="#F0F0F0"/>
<path d="M427.47 112.589C427.22 111.405 427.253 110.131 426.686 109.062C425.834 107.459 423.876 106.789 422.067 106.631C419.757 106.43 417.43 106.829 415.117 106.671C412.804 106.513 410.334 105.632 409.183 103.622C408.723 102.82 408.497 101.876 407.888 101.18C406.62 99.7331 404.309 99.9572 402.487 100.577C400.666 101.198 398.765 102.103 396.903 101.619C395.337 97.24 397.265 92.1892 400.601 88.9471C403.936 85.7049 408.434 83.9602 412.902 82.6598C418.794 80.9443 425.426 79.9307 430.843 82.8124C438.7 86.9908 441.472 98.0506 440.747 106.294C440.473 109.41 440.025 112.938 437.504 115.042C433.81 118.125 428.586 117.861 427.47 112.589Z" fill="#2F2E41"/>
<path d="M331.277 0.187256H0.141586V212.113H331.277V0.187256Z" fill="#E6E6E6"/>
<path d="M322.891 26.7684H10.6934V199.576H322.891V26.7684Z" fill="white"/>
<path d="M331.135 0H0V14.0579H331.135V0Z" fill="#F65D5D"/>
<path d="M10.4546 9.793C11.8947 9.793 13.0621 8.62638 13.0621 7.18727C13.0621 5.74817 11.8947 4.58154 10.4546 4.58154C9.01447 4.58154 7.84703 5.74817 7.84703 7.18727C7.84703 8.62638 9.01447 9.793 10.4546 9.793Z" fill="white"/>
<path d="M20.3514 9.793C21.7915 9.793 22.9589 8.62638 22.9589 7.18727C22.9589 5.74817 21.7915 4.58154 20.3514 4.58154C18.9113 4.58154 17.7438 5.74817 17.7438 7.18727C17.7438 8.62638 18.9113 9.793 20.3514 9.793Z" fill="white"/>
<path d="M30.2481 9.793C31.6883 9.793 32.8557 8.62638 32.8557 7.18727C32.8557 5.74817 31.6883 4.58154 30.2481 4.58154C28.808 4.58154 27.6406 5.74817 27.6406 7.18727C27.6406 8.62638 28.808 9.793 30.2481 9.793Z" fill="white"/>
<path d="M65.3134 50.9895L44.6625 71.3683L65.3134 91.7466L69.9598 87.1033L54.3443 71.4966L70.0903 55.7615L65.3134 50.9895Z" fill="#F65D5D"/>
<path d="M82.234 50.9895L102.884 71.3683L82.234 91.7466L77.5875 87.1033L93.2042 71.4971L77.457 55.7615L82.234 50.9895Z" fill="#F65D5D"/>
<path d="M149.031 56.1035C147.342 56.1035 145.973 57.0744 145.973 58.2714C145.973 59.4685 147.342 60.4394 149.031 60.4394H293.198C294.887 60.4394 296.256 59.4685 296.256 58.2714C296.256 57.0744 294.887 56.1035 293.198 56.1035H149.031Z" fill="#E6E6E6"/>
<path d="M291.765 174.879H49.2392C46.76 174.879 44.7508 173.448 44.7481 171.686V128.911C44.7508 127.148 46.76 125.718 49.2392 125.718H291.765C294.244 125.718 296.253 127.148 296.256 128.911V171.685C296.254 173.448 294.244 174.877 291.765 174.879ZM49.2392 126.994C47.7515 126.994 46.546 127.852 46.5444 128.91V171.684C46.5444 172.742 47.7515 173.599 49.2392 173.6H291.765C293.252 173.6 294.458 172.742 294.46 171.684V128.911C294.46 127.853 293.252 126.996 291.765 126.995L49.2392 126.994Z" fill="#E6E6E6"/>
<path d="M74.2137 161.123C80.2062 161.123 85.0641 156.268 85.0641 150.28C85.0641 144.292 80.2062 139.437 74.2137 139.437C68.2212 139.437 63.3633 144.292 63.3633 150.28C63.3633 156.268 68.2212 161.123 74.2137 161.123Z" fill="#E6E6E6"/>
<path d="M104.817 141.608C104.241 141.608 103.689 141.835 103.282 142.241C102.874 142.647 102.645 143.198 102.644 143.773C102.644 144.348 102.871 144.9 103.278 145.307C103.684 145.714 104.236 145.943 104.811 145.944H207.094C207.669 145.944 208.221 145.716 208.628 145.309C209.035 144.903 209.263 144.351 209.263 143.776C209.263 143.201 209.035 142.65 208.628 142.243C208.221 141.837 207.669 141.608 207.094 141.608H104.817Z" fill="#F65D5D"/>
<path d="M104.817 154.616C104.532 154.616 104.249 154.672 103.986 154.78C103.723 154.889 103.483 155.048 103.282 155.249C102.874 155.655 102.645 156.206 102.644 156.781C102.644 157.356 102.871 157.908 103.278 158.315C103.684 158.722 104.236 158.951 104.811 158.952H148.826C149.401 158.953 149.953 158.725 150.361 158.319C150.768 157.913 150.997 157.362 150.998 156.787C150.999 156.212 150.771 155.66 150.365 155.253C149.958 154.846 149.407 154.617 148.832 154.616H104.817Z" fill="#F65D5D"/>
<path d="M147.978 69.0916C147.433 69.1355 146.924 69.3829 146.553 69.7846C146.182 70.1864 145.976 70.7129 145.976 71.2595C145.976 71.806 146.182 72.3326 146.553 72.7343C146.924 73.136 147.433 73.3835 147.978 73.4274H242.462C243.007 73.3835 243.516 73.136 243.886 72.7343C244.257 72.3326 244.463 71.806 244.463 71.2595C244.463 70.7129 244.257 70.1864 243.886 69.7846C243.516 69.3829 243.007 69.1355 242.462 69.0916H147.978Z" fill="#E6E6E6"/>
<path d="M148.6 82.0796C147.149 82.0796 145.973 83.0504 145.973 84.2475C145.973 85.4446 147.149 86.4154 148.6 86.4154H272.452C273.902 86.4154 275.079 85.4446 275.079 84.2475C275.079 83.0504 273.902 82.0796 272.452 82.0796H148.6Z" fill="#E6E6E6"/>
</svg>
