<svg width="590" height="253" viewBox="0 0 590 253" fill="none" xmlns="http://www.w3.org/2000/svg">
<g clip-path="url(#clip0)">
<path d="M129.501 141.143C129.507 140.366 129.352 139.597 129.047 138.883C128.742 138.169 128.294 137.525 127.729 136.993C127.165 136.46 126.497 136.05 125.767 135.787C125.037 135.524 124.26 135.415 123.486 135.467C122.712 135.518 121.957 135.728 121.268 136.085C120.579 136.441 119.971 136.936 119.481 137.538C118.992 138.141 118.631 138.838 118.423 139.585C118.214 140.333 118.162 141.116 118.27 141.886L102.057 163.14C101.365 164.525 101.097 166.084 101.286 167.621C101.475 169.158 102.113 170.605 103.119 171.781L104.391 173.266L110.227 172.098L116.84 166.256L116.062 159.635L124.232 146.783L124.221 146.774C125.651 146.682 126.993 146.05 127.974 145.004C128.954 143.958 129.501 142.577 129.501 141.143Z" fill="#FFB9B9"/>
<path d="M17.3855 245.055L14.739 235.215L51.3907 220.314L55.2965 234.837L17.3855 245.055Z" fill="#FFB8B8"/>
<path d="M8.53277 250.132L0 218.405L0.400849 218.297C3.67236 217.415 7.15973 217.871 10.0959 219.563C13.0321 221.255 15.1765 224.046 16.0576 227.321L16.0579 227.321L21.2693 246.7L8.53277 250.132Z" fill="#2F2E41"/>
<path d="M67.8716 243.483L59.6398 237.49L78.8135 202.85L90.9633 211.695L67.8716 243.483Z" fill="#FFB8B8"/>
<path d="M64.1683 253L37.6245 233.675L37.8686 233.339C39.8613 230.596 42.8608 228.758 46.2073 228.228C49.5538 227.699 52.9732 228.522 55.7134 230.517L55.7141 230.518L71.9261 242.321L64.1683 253Z" fill="#2F2E41"/>
<path d="M137.848 195.076L117.132 174.93C115.324 173.172 112.943 172.126 110.426 171.985C107.91 171.845 105.427 172.618 103.435 174.164L64.321 217.665L67.8224 223.118L105.169 197.802L130.456 230.907L154.576 218.834L137.848 195.076Z" fill="#2F2E41"/>
<path d="M128.9 199.36L113.728 198.192L102.74 195.525C102.12 194.556 101.218 193.8 100.156 193.357C99.0942 192.915 97.9227 192.808 96.7985 193.051C95.6743 193.294 94.651 193.875 93.8656 194.716C93.0801 195.557 92.5701 196.618 92.4038 197.757C92.2374 198.896 92.4227 200.059 92.9348 201.09C93.4468 202.121 94.2613 202.971 95.2691 203.526C96.2768 204.08 97.4298 204.314 98.5737 204.194C99.7176 204.075 100.798 203.609 101.67 202.858L101.668 202.866L108.282 205.592L136.681 215.328L140.182 212.602L128.9 199.36Z" fill="#FFB9B9"/>
<path d="M165.469 241.423L156.91 246.875H146.795L99.7228 229.349L30.8645 241.812L28.9194 227.012L91.9425 199.361L147.185 217.665L165.469 241.423Z" fill="#2F2E41"/>
<path d="M147.184 146.783C155.564 146.783 162.357 139.982 162.357 131.594C162.357 123.205 155.564 116.405 147.184 116.405C138.805 116.405 132.012 123.205 132.012 131.594C132.012 139.982 138.805 146.783 147.184 146.783Z" fill="#FFB9B9"/>
<path d="M186.441 192.237C186.441 201.404 184.998 210.514 182.166 219.231L181.03 222.728L175.584 247.654L169.748 249.212L165.469 243.759L156.91 237.528L150.686 227.402L145.348 218.499L143.683 215.718L137.848 186.508L115.673 174.045L108.281 172.877L109.838 168.593L116.451 159.635L123.065 158.856L125.01 157.298L126.566 158.077L135.144 161.385L162.956 149.622L167.025 150.288L181.03 161.972C184.61 171.66 186.443 181.907 186.441 192.237Z" fill="#CCCCCC"/>
<path opacity="0.1" d="M182.197 188.845L167.414 198.581L145.348 218.498L143.683 215.718L139.015 192.35H140.182L152.242 170.151L182.197 188.845Z" fill="black"/>
<path d="M152.242 167.814L140.182 190.013L133.179 197.803L126.955 199.361L143.683 217.665L167.414 196.245L182.197 186.508L152.242 167.814Z" fill="#CCCCCC"/>
<path d="M135.384 120.3L133.74 120.933C133.49 120.764 133.276 120.547 133.11 120.295C132.945 120.044 132.83 119.761 132.773 119.465C132.716 119.169 132.718 118.864 132.778 118.569C132.839 118.273 132.957 117.993 133.126 117.743C133.135 117.73 133.144 117.717 133.153 117.704L130.115 117.561C132.065 114.961 134.545 112.805 137.389 111.236C140.234 109.667 143.379 108.721 146.616 108.46C149.854 108.198 153.109 108.628 156.168 109.721C159.227 110.814 162.019 112.544 164.36 114.798C164.499 114.321 166.006 115.249 166.622 116.19C166.829 115.414 168.242 119.165 168.742 121.817C168.974 120.934 169.864 122.359 169.084 123.727C169.578 123.654 169.801 124.92 169.419 125.625C169.959 125.371 169.868 126.881 169.282 127.891C170.053 127.822 169.216 143.726 157.642 142.567C156.836 138.86 157.063 139.091 156.114 134.324C155.673 133.855 155.189 133.428 154.706 133.001L152.095 130.693C149.058 128.01 146.296 124.698 142.25 123.695C139.47 123.005 137.712 122.85 139.227 119.714C137.858 120.285 136.58 121.136 135.199 121.667C135.217 121.229 135.41 120.738 135.384 120.3Z" fill="#2F2E41"/>
<path d="M154.771 136.073C156.274 136.073 157.494 134.852 157.494 133.346C157.494 131.841 156.274 130.62 154.771 130.62C153.267 130.62 152.047 131.841 152.047 133.346C152.047 134.852 153.267 136.073 154.771 136.073Z" fill="#FFB9B9"/>
<path d="M27.7774 68.958L26.9464 81.4506L39.425 82.2826L40.256 69.79L27.7774 68.958Z" fill="#E6E6E6"/>
<path d="M19.7262 75.5916L34.8788 76.6018L33.8697 91.7713L18.717 90.7611L19.7262 75.5916ZM34.1761 77.2174L20.3411 76.295L19.4197 90.1454L33.2547 91.0678L34.1761 77.2174Z" fill="#CCCCCC"/>
<path d="M98.2962 31.9138L86.069 34.544L88.6962 46.7849L100.923 44.1547L98.2962 31.9138Z" fill="#E6E6E6"/>
<path d="M89.7141 25.9849L92.9044 40.8487L78.0571 44.0425L74.8668 29.1787L89.7141 25.9849ZM92.1201 40.3413L89.2073 26.77L75.6511 29.6861L78.5639 43.2574L92.1201 40.3413Z" fill="#CCCCCC"/>
<path d="M85.4484 90.6987L76.3208 99.2578L84.8703 108.396L93.9979 99.8365L85.4484 90.6987Z" fill="#E6E6E6"/>
<path d="M94.6542 89.4184L83.5707 99.8116L73.1891 88.7157L84.2726 78.3225L94.6542 89.4184ZM83.6012 98.8772L93.7209 89.3878L84.2421 79.2569L74.1224 88.7463L83.6012 98.8772Z" fill="#CCCCCC"/>
<path d="M557.472 0H187.445C186.108 -1.52167e-06 184.784 0.263726 183.548 0.776124C182.312 1.28852 181.189 2.03955 180.244 2.98634C179.298 3.93313 178.548 5.05714 178.036 6.29418C177.524 7.53122 177.261 8.85707 177.261 10.196V216.598C177.261 217.937 177.524 219.263 178.036 220.5C178.548 221.737 179.298 222.861 180.244 223.808C181.189 224.754 182.312 225.505 183.548 226.018C184.784 226.53 186.108 226.794 187.445 226.794H557.472C560.173 226.794 562.763 225.72 564.673 223.808C566.583 221.895 567.656 219.302 567.656 216.598V10.196C567.656 7.49187 566.583 4.89848 564.673 2.98635C562.763 1.07422 560.173 1.53659e-06 557.472 0Z" fill="#3F3D56"/>
<path d="M554.002 18.0193H190.915V223.066H554.002V18.0193Z" fill="white"/>
<path d="M372.148 12.4271C374.205 12.4271 375.872 10.7579 375.872 8.69894C375.872 6.63996 374.205 4.97083 372.148 4.97083C370.091 4.97083 368.424 6.63996 368.424 8.69894C368.424 10.7579 370.091 12.4271 372.148 12.4271Z" fill="white"/>
<path d="M450.165 223.066H190.915V18.0196L450.165 223.066Z" fill="#F2F2F2"/>
<path d="M247.727 207.722C267.003 207.722 282.628 192.079 282.628 172.782C282.628 153.485 267.003 137.842 247.727 137.842C228.452 137.842 212.826 153.485 212.826 172.782C212.826 192.079 228.452 207.722 247.727 207.722Z" fill="#F65D5D"/>
<path d="M255.497 199.043C246.91 199.043 238.517 196.494 231.378 191.718C224.238 186.943 218.674 180.155 215.388 172.213C212.102 164.272 211.242 155.533 212.918 147.102C214.593 138.671 218.727 130.927 224.799 124.849C230.87 118.771 238.606 114.631 247.027 112.954C255.449 111.277 264.178 112.138 272.11 115.427C280.043 118.717 286.823 124.288 291.594 131.435C296.364 138.582 298.91 146.985 298.91 155.581C298.91 161.289 297.787 166.94 295.606 172.213C293.424 177.486 290.226 182.277 286.195 186.313C282.163 190.349 277.378 193.55 272.11 195.735C266.843 197.919 261.198 199.043 255.497 199.043ZM255.497 112.687C247.023 112.687 238.739 115.203 231.693 119.916C224.647 124.629 219.155 131.328 215.912 139.166C212.669 147.004 211.821 155.629 213.474 163.949C215.127 172.27 219.208 179.913 225.2 185.911C231.192 191.91 238.827 195.996 247.138 197.651C255.449 199.306 264.064 198.456 271.893 195.21C279.722 191.963 286.414 186.465 291.122 179.412C295.83 172.358 298.343 164.065 298.343 155.581C298.343 149.948 297.234 144.37 295.081 139.166C292.928 133.962 289.772 129.234 285.793 125.251C281.815 121.268 277.091 118.108 271.893 115.952C266.695 113.797 261.123 112.687 255.497 112.687L255.497 112.687Z" fill="#3F3D56"/>
<path d="M469.948 124.547H436.032V131.642H469.948V124.547Z" fill="#3F3D56"/>
<path d="M502.036 86.1099H403.944V89.1506H502.036V86.1099Z" fill="#3F3D56"/>
<path d="M502.036 98.0562H403.944V101.097H502.036V98.0562Z" fill="#3F3D56"/>
<path d="M502.036 110.002H403.944V113.043H502.036V110.002Z" fill="#3F3D56"/>
<path d="M528.313 30.2904H514.139V44.4802H528.313V30.2904Z" fill="#F65D5D"/>
<path d="M534.894 51.0683H517.683V33.8378H534.894V51.0683ZM518.431 50.3192H534.146V34.587H518.431L518.431 50.3192Z" fill="#CCCCCC"/>
<path d="M577.851 219.338H542.416V216.782C542.416 216.715 542.403 216.649 542.378 216.588C542.352 216.526 542.315 216.47 542.268 216.423C542.221 216.376 542.165 216.339 542.104 216.314C542.042 216.288 541.976 216.275 541.91 216.275H529.761C529.694 216.275 529.628 216.288 529.567 216.314C529.506 216.339 529.45 216.376 529.403 216.423C529.356 216.47 529.318 216.526 529.293 216.588C529.268 216.649 529.254 216.715 529.254 216.782V219.338H521.661V216.782C521.661 216.715 521.648 216.649 521.623 216.588C521.597 216.526 521.56 216.47 521.513 216.423C521.466 216.376 521.41 216.339 521.349 216.314C521.287 216.288 521.222 216.275 521.155 216.275H509.006C508.94 216.275 508.874 216.288 508.812 216.314C508.751 216.339 508.695 216.376 508.648 216.423C508.601 216.47 508.564 216.526 508.538 216.588C508.513 216.649 508.5 216.715 508.5 216.782V219.338H500.907V216.782C500.907 216.715 500.894 216.649 500.868 216.588C500.843 216.526 500.805 216.47 500.758 216.423C500.711 216.376 500.656 216.339 500.594 216.314C500.533 216.288 500.467 216.275 500.4 216.275H488.251C488.185 216.275 488.119 216.288 488.058 216.314C487.996 216.339 487.94 216.376 487.893 216.423C487.846 216.47 487.809 216.526 487.784 216.588C487.758 216.649 487.745 216.715 487.745 216.782V219.338H480.152V216.782C480.152 216.715 480.139 216.649 480.113 216.588C480.088 216.526 480.051 216.47 480.004 216.423C479.957 216.376 479.901 216.339 479.839 216.314C479.778 216.288 479.712 216.275 479.646 216.275H467.497C467.43 216.275 467.364 216.288 467.303 216.314C467.241 216.339 467.186 216.376 467.139 216.423C467.092 216.47 467.054 216.526 467.029 216.588C467.004 216.649 466.99 216.715 466.99 216.782V219.338H459.397V216.782C459.397 216.715 459.384 216.649 459.359 216.588C459.333 216.526 459.296 216.47 459.249 216.423C459.202 216.376 459.146 216.339 459.085 216.314C459.023 216.288 458.958 216.275 458.891 216.275H446.742C446.675 216.275 446.61 216.288 446.548 216.314C446.487 216.339 446.431 216.376 446.384 216.423C446.337 216.47 446.3 216.526 446.274 216.588C446.249 216.649 446.236 216.715 446.236 216.782V219.338H438.643V216.782C438.643 216.715 438.629 216.649 438.604 216.588C438.579 216.526 438.541 216.47 438.494 216.423C438.447 216.376 438.391 216.339 438.33 216.314C438.269 216.288 438.203 216.275 438.136 216.275H425.987C425.921 216.275 425.855 216.288 425.793 216.314C425.732 216.339 425.676 216.376 425.629 216.423C425.582 216.47 425.545 216.526 425.52 216.588C425.494 216.649 425.481 216.715 425.481 216.782V219.338H417.888V216.782C417.888 216.715 417.875 216.649 417.849 216.588C417.824 216.526 417.787 216.47 417.74 216.423C417.693 216.376 417.637 216.339 417.575 216.314C417.514 216.288 417.448 216.275 417.382 216.275H322.214C322.147 216.275 322.081 216.288 322.02 216.314C321.958 216.339 321.903 216.376 321.856 216.423C321.809 216.47 321.771 216.526 321.746 216.588C321.72 216.649 321.707 216.715 321.707 216.782V219.338H314.114V216.782C314.114 216.715 314.101 216.649 314.076 216.588C314.05 216.526 314.013 216.47 313.966 216.423C313.919 216.376 313.863 216.339 313.802 216.314C313.74 216.288 313.674 216.275 313.608 216.275H301.459C301.392 216.275 301.327 216.288 301.265 216.314C301.204 216.339 301.148 216.376 301.101 216.423C301.054 216.47 301.017 216.526 300.991 216.588C300.966 216.649 300.953 216.715 300.953 216.782V219.338H293.36V216.782C293.36 216.715 293.346 216.649 293.321 216.588C293.296 216.526 293.258 216.47 293.211 216.423C293.164 216.376 293.108 216.339 293.047 216.314C292.986 216.288 292.92 216.275 292.853 216.275H280.704C280.638 216.275 280.572 216.288 280.51 216.314C280.449 216.339 280.393 216.376 280.346 216.423C280.299 216.47 280.262 216.526 280.237 216.588C280.211 216.649 280.198 216.715 280.198 216.782V219.338H272.605V216.782C272.605 216.715 272.592 216.649 272.566 216.588C272.541 216.526 272.504 216.47 272.457 216.423C272.41 216.376 272.354 216.339 272.292 216.314C272.231 216.288 272.165 216.275 272.099 216.275H259.949C259.883 216.275 259.817 216.288 259.756 216.314C259.694 216.339 259.639 216.376 259.592 216.423C259.545 216.47 259.507 216.526 259.482 216.588C259.456 216.649 259.443 216.715 259.443 216.782V219.338H251.85V216.782C251.85 216.715 251.837 216.649 251.812 216.588C251.786 216.526 251.749 216.47 251.702 216.423C251.655 216.376 251.599 216.339 251.538 216.314C251.476 216.288 251.41 216.275 251.344 216.275H239.195C239.128 216.275 239.062 216.288 239.001 216.314C238.94 216.339 238.884 216.376 238.837 216.423C238.79 216.47 238.753 216.526 238.727 216.588C238.702 216.649 238.689 216.715 238.689 216.782V219.338H231.095V216.782C231.095 216.715 231.082 216.649 231.057 216.588C231.031 216.526 230.994 216.47 230.947 216.423C230.9 216.376 230.844 216.339 230.783 216.314C230.721 216.288 230.656 216.275 230.589 216.275H218.44C218.306 216.275 218.177 216.328 218.082 216.423C217.987 216.518 217.934 216.647 217.934 216.782V219.338H210.341V216.782C210.341 216.715 210.328 216.649 210.302 216.588C210.277 216.526 210.239 216.47 210.192 216.423C210.145 216.376 210.09 216.339 210.028 216.314C209.967 216.288 209.901 216.275 209.834 216.275H197.685C197.551 216.275 197.422 216.328 197.327 216.423C197.232 216.518 197.179 216.647 197.179 216.782V219.338H173.893C170.671 219.338 167.581 220.619 165.303 222.9C163.024 225.181 161.744 228.275 161.744 231.5V237C161.744 240.226 163.024 243.319 165.303 245.6C167.581 247.881 170.671 249.163 173.893 249.163H577.851C581.073 249.163 584.163 247.881 586.442 245.6C588.72 243.319 590 240.226 590 237V231.5C590 229.903 589.686 228.322 589.075 226.846C588.465 225.37 587.57 224.029 586.442 222.9C585.313 221.771 583.974 220.875 582.5 220.264C581.026 219.652 579.446 219.338 577.851 219.338Z" fill="#3F3D56"/>
</g>
<defs>
<clipPath id="clip0">
<rect width="590" height="253" fill="white"/>
</clipPath>
</defs>
</svg>
